%TF.GenerationSoftware,KiCad,Pcbnew,6.0.9-8da3e8f707~116~ubuntu20.04.1*%
%TF.CreationDate,2022-12-23T11:35:52+01:00*%
%TF.ProjectId,pcm_dac,70636d5f-6461-4632-9e6b-696361645f70,rev?*%
%TF.SameCoordinates,Original*%
%TF.FileFunction,Drillmap*%
%TF.FilePolarity,Positive*%
%FSLAX45Y45*%
G04 Gerber Fmt 4.5, Leading zero omitted, Abs format (unit mm)*
G04 Created by KiCad (PCBNEW 6.0.9-8da3e8f707~116~ubuntu20.04.1) date 2022-12-23 11:35:52*
%MOMM*%
%LPD*%
G01*
G04 APERTURE LIST*
%ADD10C,0.100000*%
%ADD11C,0.200000*%
%ADD12C,0.150000*%
G04 APERTURE END LIST*
D10*
X11938000Y-5905500D02*
X11938000Y-11366500D01*
X13652500Y-11430000D02*
G75*
G03*
X13716000Y-11366500I0J63500D01*
G01*
X13716000Y-5905500D02*
G75*
G03*
X13652500Y-5842000I-63500J0D01*
G01*
X11938000Y-11366500D02*
G75*
G03*
X12001500Y-11430000I63500J0D01*
G01*
X13716000Y-11366500D02*
X13716000Y-5905500D01*
X13652500Y-5842000D02*
X12001500Y-5842000D01*
X12001500Y-11430000D02*
X13652500Y-11430000D01*
X12001500Y-5842000D02*
G75*
G03*
X11938000Y-5905500I0J-63500D01*
G01*
D11*
D12*
X12402500Y-10656500D02*
X12552500Y-10806500D01*
X12552500Y-10656500D02*
X12402500Y-10806500D01*
X13102500Y-10656500D02*
X13252500Y-10806500D01*
X13252500Y-10656500D02*
X13102500Y-10806500D01*
D11*
X12190619Y-11745476D02*
X12190619Y-11545476D01*
X12238238Y-11545476D01*
X12266809Y-11555000D01*
X12285857Y-11574048D01*
X12295381Y-11593095D01*
X12304905Y-11631190D01*
X12304905Y-11659762D01*
X12295381Y-11697857D01*
X12285857Y-11716905D01*
X12266809Y-11735952D01*
X12238238Y-11745476D01*
X12190619Y-11745476D01*
X12390619Y-11745476D02*
X12390619Y-11612143D01*
X12390619Y-11650238D02*
X12400143Y-11631190D01*
X12409667Y-11621667D01*
X12428714Y-11612143D01*
X12447762Y-11612143D01*
X12514428Y-11745476D02*
X12514428Y-11612143D01*
X12514428Y-11545476D02*
X12504905Y-11555000D01*
X12514428Y-11564524D01*
X12523952Y-11555000D01*
X12514428Y-11545476D01*
X12514428Y-11564524D01*
X12638238Y-11745476D02*
X12619190Y-11735952D01*
X12609667Y-11716905D01*
X12609667Y-11545476D01*
X12743000Y-11745476D02*
X12723952Y-11735952D01*
X12714428Y-11716905D01*
X12714428Y-11545476D01*
X12971571Y-11745476D02*
X12971571Y-11545476D01*
X13038238Y-11688333D01*
X13104905Y-11545476D01*
X13104905Y-11745476D01*
X13285857Y-11745476D02*
X13285857Y-11640714D01*
X13276333Y-11621667D01*
X13257286Y-11612143D01*
X13219190Y-11612143D01*
X13200143Y-11621667D01*
X13285857Y-11735952D02*
X13266809Y-11745476D01*
X13219190Y-11745476D01*
X13200143Y-11735952D01*
X13190619Y-11716905D01*
X13190619Y-11697857D01*
X13200143Y-11678809D01*
X13219190Y-11669286D01*
X13266809Y-11669286D01*
X13285857Y-11659762D01*
X13381095Y-11612143D02*
X13381095Y-11812143D01*
X13381095Y-11621667D02*
X13400143Y-11612143D01*
X13438238Y-11612143D01*
X13457286Y-11621667D01*
X13466809Y-11631190D01*
X13476333Y-11650238D01*
X13476333Y-11707381D01*
X13466809Y-11726428D01*
X13457286Y-11735952D01*
X13438238Y-11745476D01*
X13400143Y-11745476D01*
X13381095Y-11735952D01*
X13562048Y-11726428D02*
X13571571Y-11735952D01*
X13562048Y-11745476D01*
X13552524Y-11735952D01*
X13562048Y-11726428D01*
X13562048Y-11745476D01*
X13562048Y-11621667D02*
X13571571Y-11631190D01*
X13562048Y-11640714D01*
X13552524Y-11631190D01*
X13562048Y-11621667D01*
X13562048Y-11640714D01*
D12*
X11783000Y-12000000D02*
X11933000Y-12150000D01*
X11933000Y-12000000D02*
X11783000Y-12150000D01*
D11*
X12295381Y-12165476D02*
X12181095Y-12165476D01*
X12238238Y-12165476D02*
X12238238Y-11965476D01*
X12219190Y-11994048D01*
X12200143Y-12013095D01*
X12181095Y-12022619D01*
X12381095Y-12146428D02*
X12390619Y-12155952D01*
X12381095Y-12165476D01*
X12371571Y-12155952D01*
X12381095Y-12146428D01*
X12381095Y-12165476D01*
X12571571Y-11965476D02*
X12476333Y-11965476D01*
X12466809Y-12060714D01*
X12476333Y-12051190D01*
X12495381Y-12041667D01*
X12543000Y-12041667D01*
X12562048Y-12051190D01*
X12571571Y-12060714D01*
X12581095Y-12079762D01*
X12581095Y-12127381D01*
X12571571Y-12146428D01*
X12562048Y-12155952D01*
X12543000Y-12165476D01*
X12495381Y-12165476D01*
X12476333Y-12155952D01*
X12466809Y-12146428D01*
X12704905Y-11965476D02*
X12723952Y-11965476D01*
X12743000Y-11975000D01*
X12752524Y-11984524D01*
X12762048Y-12003571D01*
X12771571Y-12041667D01*
X12771571Y-12089286D01*
X12762048Y-12127381D01*
X12752524Y-12146428D01*
X12743000Y-12155952D01*
X12723952Y-12165476D01*
X12704905Y-12165476D01*
X12685857Y-12155952D01*
X12676333Y-12146428D01*
X12666809Y-12127381D01*
X12657286Y-12089286D01*
X12657286Y-12041667D01*
X12666809Y-12003571D01*
X12676333Y-11984524D01*
X12685857Y-11975000D01*
X12704905Y-11965476D01*
X12895381Y-11965476D02*
X12914428Y-11965476D01*
X12933476Y-11975000D01*
X12943000Y-11984524D01*
X12952524Y-12003571D01*
X12962048Y-12041667D01*
X12962048Y-12089286D01*
X12952524Y-12127381D01*
X12943000Y-12146428D01*
X12933476Y-12155952D01*
X12914428Y-12165476D01*
X12895381Y-12165476D01*
X12876333Y-12155952D01*
X12866809Y-12146428D01*
X12857286Y-12127381D01*
X12847762Y-12089286D01*
X12847762Y-12041667D01*
X12857286Y-12003571D01*
X12866809Y-11984524D01*
X12876333Y-11975000D01*
X12895381Y-11965476D01*
X13047762Y-12165476D02*
X13047762Y-12032143D01*
X13047762Y-12051190D02*
X13057286Y-12041667D01*
X13076333Y-12032143D01*
X13104905Y-12032143D01*
X13123952Y-12041667D01*
X13133476Y-12060714D01*
X13133476Y-12165476D01*
X13133476Y-12060714D02*
X13143000Y-12041667D01*
X13162048Y-12032143D01*
X13190619Y-12032143D01*
X13209667Y-12041667D01*
X13219190Y-12060714D01*
X13219190Y-12165476D01*
X13314428Y-12165476D02*
X13314428Y-12032143D01*
X13314428Y-12051190D02*
X13323952Y-12041667D01*
X13343000Y-12032143D01*
X13371571Y-12032143D01*
X13390619Y-12041667D01*
X13400143Y-12060714D01*
X13400143Y-12165476D01*
X13400143Y-12060714D02*
X13409667Y-12041667D01*
X13428714Y-12032143D01*
X13457286Y-12032143D01*
X13476333Y-12041667D01*
X13485857Y-12060714D01*
X13485857Y-12165476D01*
X13876333Y-11955952D02*
X13704905Y-12213095D01*
X14133476Y-11965476D02*
X14152524Y-11965476D01*
X14171571Y-11975000D01*
X14181095Y-11984524D01*
X14190619Y-12003571D01*
X14200143Y-12041667D01*
X14200143Y-12089286D01*
X14190619Y-12127381D01*
X14181095Y-12146428D01*
X14171571Y-12155952D01*
X14152524Y-12165476D01*
X14133476Y-12165476D01*
X14114428Y-12155952D01*
X14104905Y-12146428D01*
X14095381Y-12127381D01*
X14085857Y-12089286D01*
X14085857Y-12041667D01*
X14095381Y-12003571D01*
X14104905Y-11984524D01*
X14114428Y-11975000D01*
X14133476Y-11965476D01*
X14285857Y-12146428D02*
X14295381Y-12155952D01*
X14285857Y-12165476D01*
X14276333Y-12155952D01*
X14285857Y-12146428D01*
X14285857Y-12165476D01*
X14419190Y-11965476D02*
X14438238Y-11965476D01*
X14457286Y-11975000D01*
X14466809Y-11984524D01*
X14476333Y-12003571D01*
X14485857Y-12041667D01*
X14485857Y-12089286D01*
X14476333Y-12127381D01*
X14466809Y-12146428D01*
X14457286Y-12155952D01*
X14438238Y-12165476D01*
X14419190Y-12165476D01*
X14400143Y-12155952D01*
X14390619Y-12146428D01*
X14381095Y-12127381D01*
X14371571Y-12089286D01*
X14371571Y-12041667D01*
X14381095Y-12003571D01*
X14390619Y-11984524D01*
X14400143Y-11975000D01*
X14419190Y-11965476D01*
X14666809Y-11965476D02*
X14571571Y-11965476D01*
X14562048Y-12060714D01*
X14571571Y-12051190D01*
X14590619Y-12041667D01*
X14638238Y-12041667D01*
X14657286Y-12051190D01*
X14666809Y-12060714D01*
X14676333Y-12079762D01*
X14676333Y-12127381D01*
X14666809Y-12146428D01*
X14657286Y-12155952D01*
X14638238Y-12165476D01*
X14590619Y-12165476D01*
X14571571Y-12155952D01*
X14562048Y-12146428D01*
X14771571Y-12165476D02*
X14809667Y-12165476D01*
X14828714Y-12155952D01*
X14838238Y-12146428D01*
X14857286Y-12117857D01*
X14866809Y-12079762D01*
X14866809Y-12003571D01*
X14857286Y-11984524D01*
X14847762Y-11975000D01*
X14828714Y-11965476D01*
X14790619Y-11965476D01*
X14771571Y-11975000D01*
X14762048Y-11984524D01*
X14752524Y-12003571D01*
X14752524Y-12051190D01*
X14762048Y-12070238D01*
X14771571Y-12079762D01*
X14790619Y-12089286D01*
X14828714Y-12089286D01*
X14847762Y-12079762D01*
X14857286Y-12070238D01*
X14866809Y-12051190D01*
X15057286Y-12165476D02*
X14943000Y-12165476D01*
X15000143Y-12165476D02*
X15000143Y-11965476D01*
X14981095Y-11994048D01*
X14962048Y-12013095D01*
X14943000Y-12022619D01*
X15133476Y-11965476D02*
X15133476Y-12003571D01*
X15209667Y-11965476D02*
X15209667Y-12003571D01*
X15504905Y-12241667D02*
X15495381Y-12232143D01*
X15476333Y-12203571D01*
X15466809Y-12184524D01*
X15457286Y-12155952D01*
X15447762Y-12108333D01*
X15447762Y-12070238D01*
X15457286Y-12022619D01*
X15466809Y-11994048D01*
X15476333Y-11975000D01*
X15495381Y-11946428D01*
X15504905Y-11936905D01*
X15571571Y-11984524D02*
X15581095Y-11975000D01*
X15600143Y-11965476D01*
X15647762Y-11965476D01*
X15666809Y-11975000D01*
X15676333Y-11984524D01*
X15685857Y-12003571D01*
X15685857Y-12022619D01*
X15676333Y-12051190D01*
X15562048Y-12165476D01*
X15685857Y-12165476D01*
X15923952Y-12165476D02*
X15923952Y-11965476D01*
X16009667Y-12165476D02*
X16009667Y-12060714D01*
X16000143Y-12041667D01*
X15981095Y-12032143D01*
X15952524Y-12032143D01*
X15933476Y-12041667D01*
X15923952Y-12051190D01*
X16133476Y-12165476D02*
X16114428Y-12155952D01*
X16104905Y-12146428D01*
X16095381Y-12127381D01*
X16095381Y-12070238D01*
X16104905Y-12051190D01*
X16114428Y-12041667D01*
X16133476Y-12032143D01*
X16162048Y-12032143D01*
X16181095Y-12041667D01*
X16190619Y-12051190D01*
X16200143Y-12070238D01*
X16200143Y-12127381D01*
X16190619Y-12146428D01*
X16181095Y-12155952D01*
X16162048Y-12165476D01*
X16133476Y-12165476D01*
X16314428Y-12165476D02*
X16295381Y-12155952D01*
X16285857Y-12136905D01*
X16285857Y-11965476D01*
X16466809Y-12155952D02*
X16447762Y-12165476D01*
X16409667Y-12165476D01*
X16390619Y-12155952D01*
X16381095Y-12136905D01*
X16381095Y-12060714D01*
X16390619Y-12041667D01*
X16409667Y-12032143D01*
X16447762Y-12032143D01*
X16466809Y-12041667D01*
X16476333Y-12060714D01*
X16476333Y-12079762D01*
X16381095Y-12098809D01*
X16552524Y-12155952D02*
X16571571Y-12165476D01*
X16609667Y-12165476D01*
X16628714Y-12155952D01*
X16638238Y-12136905D01*
X16638238Y-12127381D01*
X16628714Y-12108333D01*
X16609667Y-12098809D01*
X16581095Y-12098809D01*
X16562048Y-12089286D01*
X16552524Y-12070238D01*
X16552524Y-12060714D01*
X16562048Y-12041667D01*
X16581095Y-12032143D01*
X16609667Y-12032143D01*
X16628714Y-12041667D01*
X16704905Y-12241667D02*
X16714428Y-12232143D01*
X16733476Y-12203571D01*
X16743000Y-12184524D01*
X16752524Y-12155952D01*
X16762048Y-12108333D01*
X16762048Y-12070238D01*
X16752524Y-12022619D01*
X16743000Y-11994048D01*
X16733476Y-11975000D01*
X16714428Y-11946428D01*
X16704905Y-11936905D01*
X17066810Y-12241667D02*
X17057286Y-12232143D01*
X17038238Y-12203571D01*
X17028714Y-12184524D01*
X17019190Y-12155952D01*
X17009667Y-12108333D01*
X17009667Y-12070238D01*
X17019190Y-12022619D01*
X17028714Y-11994048D01*
X17038238Y-11975000D01*
X17057286Y-11946428D01*
X17066810Y-11936905D01*
X17143000Y-12032143D02*
X17143000Y-12165476D01*
X17143000Y-12051190D02*
X17152524Y-12041667D01*
X17171571Y-12032143D01*
X17200143Y-12032143D01*
X17219190Y-12041667D01*
X17228714Y-12060714D01*
X17228714Y-12165476D01*
X17352524Y-12165476D02*
X17333476Y-12155952D01*
X17323952Y-12146428D01*
X17314429Y-12127381D01*
X17314429Y-12070238D01*
X17323952Y-12051190D01*
X17333476Y-12041667D01*
X17352524Y-12032143D01*
X17381095Y-12032143D01*
X17400143Y-12041667D01*
X17409667Y-12051190D01*
X17419190Y-12070238D01*
X17419190Y-12127381D01*
X17409667Y-12146428D01*
X17400143Y-12155952D01*
X17381095Y-12165476D01*
X17352524Y-12165476D01*
X17476333Y-12032143D02*
X17552524Y-12032143D01*
X17504905Y-11965476D02*
X17504905Y-12136905D01*
X17514429Y-12155952D01*
X17533476Y-12165476D01*
X17552524Y-12165476D01*
X17771571Y-12032143D02*
X17771571Y-12232143D01*
X17771571Y-12041667D02*
X17790619Y-12032143D01*
X17828714Y-12032143D01*
X17847762Y-12041667D01*
X17857286Y-12051190D01*
X17866810Y-12070238D01*
X17866810Y-12127381D01*
X17857286Y-12146428D01*
X17847762Y-12155952D01*
X17828714Y-12165476D01*
X17790619Y-12165476D01*
X17771571Y-12155952D01*
X17981095Y-12165476D02*
X17962048Y-12155952D01*
X17952524Y-12136905D01*
X17952524Y-11965476D01*
X18143000Y-12165476D02*
X18143000Y-12060714D01*
X18133476Y-12041667D01*
X18114429Y-12032143D01*
X18076333Y-12032143D01*
X18057286Y-12041667D01*
X18143000Y-12155952D02*
X18123952Y-12165476D01*
X18076333Y-12165476D01*
X18057286Y-12155952D01*
X18047762Y-12136905D01*
X18047762Y-12117857D01*
X18057286Y-12098809D01*
X18076333Y-12089286D01*
X18123952Y-12089286D01*
X18143000Y-12079762D01*
X18209667Y-12032143D02*
X18285857Y-12032143D01*
X18238238Y-11965476D02*
X18238238Y-12136905D01*
X18247762Y-12155952D01*
X18266810Y-12165476D01*
X18285857Y-12165476D01*
X18428714Y-12155952D02*
X18409667Y-12165476D01*
X18371571Y-12165476D01*
X18352524Y-12155952D01*
X18343000Y-12136905D01*
X18343000Y-12060714D01*
X18352524Y-12041667D01*
X18371571Y-12032143D01*
X18409667Y-12032143D01*
X18428714Y-12041667D01*
X18438238Y-12060714D01*
X18438238Y-12079762D01*
X18343000Y-12098809D01*
X18609667Y-12165476D02*
X18609667Y-11965476D01*
X18609667Y-12155952D02*
X18590619Y-12165476D01*
X18552524Y-12165476D01*
X18533476Y-12155952D01*
X18523952Y-12146428D01*
X18514429Y-12127381D01*
X18514429Y-12070238D01*
X18523952Y-12051190D01*
X18533476Y-12041667D01*
X18552524Y-12032143D01*
X18590619Y-12032143D01*
X18609667Y-12041667D01*
X18685857Y-12241667D02*
X18695381Y-12232143D01*
X18714429Y-12203571D01*
X18723952Y-12184524D01*
X18733476Y-12155952D01*
X18743000Y-12108333D01*
X18743000Y-12070238D01*
X18733476Y-12022619D01*
X18723952Y-11994048D01*
X18714429Y-11975000D01*
X18695381Y-11946428D01*
X18685857Y-11936905D01*
M02*
