M48
; DRILL file {KiCad 6.0.9-8da3e8f707~116~ubuntu20.04.1} date pet 23 dec 2022 11:35:50
; FORMAT={-:-/ absolute / metric / decimal}
; #@! TF.CreationDate,2022-12-23T11:35:50+01:00
; #@! TF.GenerationSoftware,Kicad,Pcbnew,6.0.9-8da3e8f707~116~ubuntu20.04.1
; #@! TF.FileFunction,Plated,1,2,PTH
FMAT,2
METRIC
; #@! TA.AperFunction,Plated,PTH,ComponentDrill
T1C1.000
%
G90
G05
T1
X121.92Y-60.96
X121.92Y-63.5
X121.92Y-71.12
X124.46Y-60.96
X124.46Y-63.5
X124.46Y-71.12
X127.0Y-60.96
X127.0Y-63.5
X127.0Y-71.12
X129.54Y-60.96
X129.54Y-63.5
X129.54Y-71.12
X132.08Y-60.96
X132.08Y-63.5
X132.08Y-71.12
X134.62Y-60.96
X134.62Y-63.5
X134.62Y-71.12
X135.22Y-77.52
X135.22Y-80.06
X135.22Y-82.6
X135.22Y-85.14
X135.22Y-87.68
X135.22Y-90.22
X135.22Y-92.76
X135.22Y-95.3
X135.22Y-97.84
T0
M30
