G04 #@! TF.GenerationSoftware,KiCad,Pcbnew,6.0.9-8da3e8f707~116~ubuntu20.04.1*
G04 #@! TF.CreationDate,2022-12-23T11:35:35+01:00*
G04 #@! TF.ProjectId,pcm_dac,70636d5f-6461-4632-9e6b-696361645f70,rev?*
G04 #@! TF.SameCoordinates,Original*
G04 #@! TF.FileFunction,Legend,Top*
G04 #@! TF.FilePolarity,Positive*
%FSLAX46Y46*%
G04 Gerber Fmt 4.6, Leading zero omitted, Abs format (unit mm)*
G04 Created by KiCad (PCBNEW 6.0.9-8da3e8f707~116~ubuntu20.04.1) date 2022-12-23 11:35:35*
%MOMM*%
%LPD*%
G01*
G04 APERTURE LIST*
G04 Aperture macros list*
%AMRoundRect*
0 Rectangle with rounded corners*
0 $1 Rounding radius*
0 $2 $3 $4 $5 $6 $7 $8 $9 X,Y pos of 4 corners*
0 Add a 4 corners polygon primitive as box body*
4,1,4,$2,$3,$4,$5,$6,$7,$8,$9,$2,$3,0*
0 Add four circle primitives for the rounded corners*
1,1,$1+$1,$2,$3*
1,1,$1+$1,$4,$5*
1,1,$1+$1,$6,$7*
1,1,$1+$1,$8,$9*
0 Add four rect primitives between the rounded corners*
20,1,$1+$1,$2,$3,$4,$5,0*
20,1,$1+$1,$4,$5,$6,$7,0*
20,1,$1+$1,$6,$7,$8,$9,0*
20,1,$1+$1,$8,$9,$2,$3,0*%
G04 Aperture macros list end*
%ADD10C,0.150000*%
%ADD11C,0.120000*%
%ADD12C,1.500000*%
%ADD13R,1.200000X2.500000*%
%ADD14R,1.700000X1.700000*%
%ADD15O,1.700000X1.700000*%
%ADD16RoundRect,0.237500X-0.250000X-0.237500X0.250000X-0.237500X0.250000X0.237500X-0.250000X0.237500X0*%
%ADD17C,1.700000*%
G04 APERTURE END LIST*
D10*
X130024523Y-113482380D02*
X129548333Y-113482380D01*
X129548333Y-112482380D01*
X130357857Y-113482380D02*
X130357857Y-112815714D01*
X130357857Y-112482380D02*
X130310238Y-112530000D01*
X130357857Y-112577619D01*
X130405476Y-112530000D01*
X130357857Y-112482380D01*
X130357857Y-112577619D01*
X130834047Y-112815714D02*
X130834047Y-113482380D01*
X130834047Y-112910952D02*
X130881666Y-112863333D01*
X130976904Y-112815714D01*
X131119761Y-112815714D01*
X131215000Y-112863333D01*
X131262619Y-112958571D01*
X131262619Y-113482380D01*
X132119761Y-113434761D02*
X132024523Y-113482380D01*
X131834047Y-113482380D01*
X131738809Y-113434761D01*
X131691190Y-113339523D01*
X131691190Y-112958571D01*
X131738809Y-112863333D01*
X131834047Y-112815714D01*
X132024523Y-112815714D01*
X132119761Y-112863333D01*
X132167380Y-112958571D01*
X132167380Y-113053809D01*
X131691190Y-113149047D01*
X132595952Y-113101428D02*
X133357857Y-113101428D01*
X134024523Y-112482380D02*
X134215000Y-112482380D01*
X134310238Y-112530000D01*
X134405476Y-112625238D01*
X134453095Y-112815714D01*
X134453095Y-113149047D01*
X134405476Y-113339523D01*
X134310238Y-113434761D01*
X134215000Y-113482380D01*
X134024523Y-113482380D01*
X133929285Y-113434761D01*
X133834047Y-113339523D01*
X133786428Y-113149047D01*
X133786428Y-112815714D01*
X133834047Y-112625238D01*
X133929285Y-112530000D01*
X134024523Y-112482380D01*
X135310238Y-112815714D02*
X135310238Y-113482380D01*
X134881666Y-112815714D02*
X134881666Y-113339523D01*
X134929285Y-113434761D01*
X135024523Y-113482380D01*
X135167380Y-113482380D01*
X135262619Y-113434761D01*
X135310238Y-113387142D01*
X135643571Y-112815714D02*
X136024523Y-112815714D01*
X135786428Y-112482380D02*
X135786428Y-113339523D01*
X135834047Y-113434761D01*
X135929285Y-113482380D01*
X136024523Y-113482380D01*
X134286666Y-102957380D02*
X134286666Y-103671666D01*
X134239047Y-103814523D01*
X134143809Y-103909761D01*
X134000952Y-103957380D01*
X133905714Y-103957380D01*
X134715238Y-103052619D02*
X134762857Y-103005000D01*
X134858095Y-102957380D01*
X135096190Y-102957380D01*
X135191428Y-103005000D01*
X135239047Y-103052619D01*
X135286666Y-103147857D01*
X135286666Y-103243095D01*
X135239047Y-103385952D01*
X134667619Y-103957380D01*
X135286666Y-103957380D01*
X120951666Y-65492380D02*
X120951666Y-66206666D01*
X120904047Y-66349523D01*
X120808809Y-66444761D01*
X120665952Y-66492380D01*
X120570714Y-66492380D01*
X121951666Y-66492380D02*
X121380238Y-66492380D01*
X121665952Y-66492380D02*
X121665952Y-65492380D01*
X121570714Y-65635238D01*
X121475476Y-65730476D01*
X121380238Y-65778095D01*
X131913333Y-67762380D02*
X131580000Y-67286190D01*
X131341904Y-67762380D02*
X131341904Y-66762380D01*
X131722857Y-66762380D01*
X131818095Y-66810000D01*
X131865714Y-66857619D01*
X131913333Y-66952857D01*
X131913333Y-67095714D01*
X131865714Y-67190952D01*
X131818095Y-67238571D01*
X131722857Y-67286190D01*
X131341904Y-67286190D01*
X132865714Y-67762380D02*
X132294285Y-67762380D01*
X132580000Y-67762380D02*
X132580000Y-66762380D01*
X132484761Y-66905238D01*
X132389523Y-67000476D01*
X132294285Y-67048095D01*
X124968095Y-67397380D02*
X124968095Y-68206904D01*
X125015714Y-68302142D01*
X125063333Y-68349761D01*
X125158571Y-68397380D01*
X125349047Y-68397380D01*
X125444285Y-68349761D01*
X125491904Y-68302142D01*
X125539523Y-68206904D01*
X125539523Y-67397380D01*
X126539523Y-68397380D02*
X125968095Y-68397380D01*
X126253809Y-68397380D02*
X126253809Y-67397380D01*
X126158571Y-67540238D01*
X126063333Y-67635476D01*
X125968095Y-67683095D01*
X130900119Y-95752380D02*
X130900119Y-95228571D01*
X130852500Y-95133333D01*
X130757261Y-95085714D01*
X130566785Y-95085714D01*
X130471547Y-95133333D01*
X130900119Y-95704761D02*
X130804880Y-95752380D01*
X130566785Y-95752380D01*
X130471547Y-95704761D01*
X130423928Y-95609523D01*
X130423928Y-95514285D01*
X130471547Y-95419047D01*
X130566785Y-95371428D01*
X130804880Y-95371428D01*
X130900119Y-95323809D01*
X131804880Y-95085714D02*
X131804880Y-95895238D01*
X131757261Y-95990476D01*
X131709642Y-96038095D01*
X131614404Y-96085714D01*
X131471547Y-96085714D01*
X131376309Y-96038095D01*
X131804880Y-95704761D02*
X131709642Y-95752380D01*
X131519166Y-95752380D01*
X131423928Y-95704761D01*
X131376309Y-95657142D01*
X131328690Y-95561904D01*
X131328690Y-95276190D01*
X131376309Y-95180952D01*
X131423928Y-95133333D01*
X131519166Y-95085714D01*
X131709642Y-95085714D01*
X131804880Y-95133333D01*
X132281071Y-95085714D02*
X132281071Y-95752380D01*
X132281071Y-95180952D02*
X132328690Y-95133333D01*
X132423928Y-95085714D01*
X132566785Y-95085714D01*
X132662023Y-95133333D01*
X132709642Y-95228571D01*
X132709642Y-95752380D01*
X133614404Y-95752380D02*
X133614404Y-94752380D01*
X133614404Y-95704761D02*
X133519166Y-95752380D01*
X133328690Y-95752380D01*
X133233452Y-95704761D01*
X133185833Y-95657142D01*
X133138214Y-95561904D01*
X133138214Y-95276190D01*
X133185833Y-95180952D01*
X133233452Y-95133333D01*
X133328690Y-95085714D01*
X133519166Y-95085714D01*
X133614404Y-95133333D01*
X121705714Y-74487500D02*
X122372380Y-74249404D01*
X121705714Y-74011309D01*
X122372380Y-73630357D02*
X121705714Y-73630357D01*
X121372380Y-73630357D02*
X121420000Y-73677976D01*
X121467619Y-73630357D01*
X121420000Y-73582738D01*
X121372380Y-73630357D01*
X121467619Y-73630357D01*
X121705714Y-73154166D02*
X122372380Y-73154166D01*
X121800952Y-73154166D02*
X121753333Y-73106547D01*
X121705714Y-73011309D01*
X121705714Y-72868452D01*
X121753333Y-72773214D01*
X121848571Y-72725595D01*
X122372380Y-72725595D01*
X130614404Y-93212380D02*
X130614404Y-92545714D01*
X130614404Y-92736190D02*
X130662023Y-92640952D01*
X130709642Y-92593333D01*
X130804880Y-92545714D01*
X130900119Y-92545714D01*
X131233452Y-93212380D02*
X131233452Y-92545714D01*
X131233452Y-92212380D02*
X131185833Y-92260000D01*
X131233452Y-92307619D01*
X131281071Y-92260000D01*
X131233452Y-92212380D01*
X131233452Y-92307619D01*
X132138214Y-92545714D02*
X132138214Y-93355238D01*
X132090595Y-93450476D01*
X132042976Y-93498095D01*
X131947738Y-93545714D01*
X131804880Y-93545714D01*
X131709642Y-93498095D01*
X132138214Y-93164761D02*
X132042976Y-93212380D01*
X131852500Y-93212380D01*
X131757261Y-93164761D01*
X131709642Y-93117142D01*
X131662023Y-93021904D01*
X131662023Y-92736190D01*
X131709642Y-92640952D01*
X131757261Y-92593333D01*
X131852500Y-92545714D01*
X132042976Y-92545714D01*
X132138214Y-92593333D01*
X132614404Y-93212380D02*
X132614404Y-92212380D01*
X133042976Y-93212380D02*
X133042976Y-92688571D01*
X132995357Y-92593333D01*
X132900119Y-92545714D01*
X132757261Y-92545714D01*
X132662023Y-92593333D01*
X132614404Y-92640952D01*
X133376309Y-92545714D02*
X133757261Y-92545714D01*
X133519166Y-92212380D02*
X133519166Y-93069523D01*
X133566785Y-93164761D01*
X133662023Y-93212380D01*
X133757261Y-93212380D01*
X122340714Y-92486904D02*
X123340714Y-92486904D01*
X122388333Y-92486904D02*
X122340714Y-92391666D01*
X122340714Y-92201190D01*
X122388333Y-92105952D01*
X122435952Y-92058333D01*
X122531190Y-92010714D01*
X122816904Y-92010714D01*
X122912142Y-92058333D01*
X122959761Y-92105952D01*
X123007380Y-92201190D01*
X123007380Y-92391666D01*
X122959761Y-92486904D01*
X122959761Y-91153571D02*
X123007380Y-91248809D01*
X123007380Y-91439285D01*
X122959761Y-91534523D01*
X122912142Y-91582142D01*
X122816904Y-91629761D01*
X122531190Y-91629761D01*
X122435952Y-91582142D01*
X122388333Y-91534523D01*
X122340714Y-91439285D01*
X122340714Y-91248809D01*
X122388333Y-91153571D01*
X123007380Y-90725000D02*
X122340714Y-90725000D01*
X122435952Y-90725000D02*
X122388333Y-90677380D01*
X122340714Y-90582142D01*
X122340714Y-90439285D01*
X122388333Y-90344047D01*
X122483571Y-90296428D01*
X123007380Y-90296428D01*
X122483571Y-90296428D02*
X122388333Y-90248809D01*
X122340714Y-90153571D01*
X122340714Y-90010714D01*
X122388333Y-89915476D01*
X122483571Y-89867857D01*
X123007380Y-89867857D01*
X122007380Y-88915476D02*
X122007380Y-89391666D01*
X122483571Y-89439285D01*
X122435952Y-89391666D01*
X122388333Y-89296428D01*
X122388333Y-89058333D01*
X122435952Y-88963095D01*
X122483571Y-88915476D01*
X122578809Y-88867857D01*
X122816904Y-88867857D01*
X122912142Y-88915476D01*
X122959761Y-88963095D01*
X123007380Y-89058333D01*
X123007380Y-89296428D01*
X122959761Y-89391666D01*
X122912142Y-89439285D01*
X123007380Y-87915476D02*
X123007380Y-88486904D01*
X123007380Y-88201190D02*
X122007380Y-88201190D01*
X122150238Y-88296428D01*
X122245476Y-88391666D01*
X122293095Y-88486904D01*
X122007380Y-87296428D02*
X122007380Y-87201190D01*
X122055000Y-87105952D01*
X122102619Y-87058333D01*
X122197857Y-87010714D01*
X122388333Y-86963095D01*
X122626428Y-86963095D01*
X122816904Y-87010714D01*
X122912142Y-87058333D01*
X122959761Y-87105952D01*
X123007380Y-87201190D01*
X123007380Y-87296428D01*
X122959761Y-87391666D01*
X122912142Y-87439285D01*
X122816904Y-87486904D01*
X122626428Y-87534523D01*
X122388333Y-87534523D01*
X122197857Y-87486904D01*
X122102619Y-87439285D01*
X122055000Y-87391666D01*
X122007380Y-87296428D01*
X122102619Y-86582142D02*
X122055000Y-86534523D01*
X122007380Y-86439285D01*
X122007380Y-86201190D01*
X122055000Y-86105952D01*
X122102619Y-86058333D01*
X122197857Y-86010714D01*
X122293095Y-86010714D01*
X122435952Y-86058333D01*
X123007380Y-86629761D01*
X123007380Y-86010714D01*
X123007380Y-85153571D02*
X122483571Y-85153571D01*
X122388333Y-85201190D01*
X122340714Y-85296428D01*
X122340714Y-85486904D01*
X122388333Y-85582142D01*
X122959761Y-85153571D02*
X123007380Y-85248809D01*
X123007380Y-85486904D01*
X122959761Y-85582142D01*
X122864523Y-85629761D01*
X122769285Y-85629761D01*
X122674047Y-85582142D01*
X122626428Y-85486904D01*
X122626428Y-85248809D01*
X122578809Y-85153571D01*
X123007380Y-83915476D02*
X122340714Y-83915476D01*
X122435952Y-83915476D02*
X122388333Y-83867857D01*
X122340714Y-83772619D01*
X122340714Y-83629761D01*
X122388333Y-83534523D01*
X122483571Y-83486904D01*
X123007380Y-83486904D01*
X122483571Y-83486904D02*
X122388333Y-83439285D01*
X122340714Y-83344047D01*
X122340714Y-83201190D01*
X122388333Y-83105952D01*
X122483571Y-83058333D01*
X123007380Y-83058333D01*
X123007380Y-82439285D02*
X122959761Y-82534523D01*
X122912142Y-82582142D01*
X122816904Y-82629761D01*
X122531190Y-82629761D01*
X122435952Y-82582142D01*
X122388333Y-82534523D01*
X122340714Y-82439285D01*
X122340714Y-82296428D01*
X122388333Y-82201190D01*
X122435952Y-82153571D01*
X122531190Y-82105952D01*
X122816904Y-82105952D01*
X122912142Y-82153571D01*
X122959761Y-82201190D01*
X123007380Y-82296428D01*
X123007380Y-82439285D01*
X123007380Y-81248809D02*
X122007380Y-81248809D01*
X122959761Y-81248809D02*
X123007380Y-81344047D01*
X123007380Y-81534523D01*
X122959761Y-81629761D01*
X122912142Y-81677380D01*
X122816904Y-81725000D01*
X122531190Y-81725000D01*
X122435952Y-81677380D01*
X122388333Y-81629761D01*
X122340714Y-81534523D01*
X122340714Y-81344047D01*
X122388333Y-81248809D01*
X122340714Y-80344047D02*
X123007380Y-80344047D01*
X122340714Y-80772619D02*
X122864523Y-80772619D01*
X122959761Y-80725000D01*
X123007380Y-80629761D01*
X123007380Y-80486904D01*
X122959761Y-80391666D01*
X122912142Y-80344047D01*
X123007380Y-79725000D02*
X122959761Y-79820238D01*
X122864523Y-79867857D01*
X122007380Y-79867857D01*
X122959761Y-78963095D02*
X123007380Y-79058333D01*
X123007380Y-79248809D01*
X122959761Y-79344047D01*
X122864523Y-79391666D01*
X122483571Y-79391666D01*
X122388333Y-79344047D01*
X122340714Y-79248809D01*
X122340714Y-79058333D01*
X122388333Y-78963095D01*
X122483571Y-78915476D01*
X122578809Y-78915476D01*
X122674047Y-79391666D01*
X131709642Y-98292380D02*
X131614404Y-98244761D01*
X131566785Y-98149523D01*
X131566785Y-97292380D01*
X132471547Y-98244761D02*
X132376309Y-98292380D01*
X132185833Y-98292380D01*
X132090595Y-98244761D01*
X132042976Y-98149523D01*
X132042976Y-97768571D01*
X132090595Y-97673333D01*
X132185833Y-97625714D01*
X132376309Y-97625714D01*
X132471547Y-97673333D01*
X132519166Y-97768571D01*
X132519166Y-97863809D01*
X132042976Y-97959047D01*
X132804880Y-97625714D02*
X133185833Y-97625714D01*
X132947738Y-98292380D02*
X132947738Y-97435238D01*
X132995357Y-97340000D01*
X133090595Y-97292380D01*
X133185833Y-97292380D01*
X133376309Y-97625714D02*
X133757261Y-97625714D01*
X133519166Y-97292380D02*
X133519166Y-98149523D01*
X133566785Y-98244761D01*
X133662023Y-98292380D01*
X133757261Y-98292380D01*
X124245714Y-74535119D02*
X125055238Y-74535119D01*
X125150476Y-74582738D01*
X125198095Y-74630357D01*
X125245714Y-74725595D01*
X125245714Y-74868452D01*
X125198095Y-74963690D01*
X124864761Y-74535119D02*
X124912380Y-74630357D01*
X124912380Y-74820833D01*
X124864761Y-74916071D01*
X124817142Y-74963690D01*
X124721904Y-75011309D01*
X124436190Y-75011309D01*
X124340952Y-74963690D01*
X124293333Y-74916071D01*
X124245714Y-74820833D01*
X124245714Y-74630357D01*
X124293333Y-74535119D01*
X124245714Y-74058928D02*
X124912380Y-74058928D01*
X124340952Y-74058928D02*
X124293333Y-74011309D01*
X124245714Y-73916071D01*
X124245714Y-73773214D01*
X124293333Y-73677976D01*
X124388571Y-73630357D01*
X124912380Y-73630357D01*
X124912380Y-72725595D02*
X123912380Y-72725595D01*
X124864761Y-72725595D02*
X124912380Y-72820833D01*
X124912380Y-73011309D01*
X124864761Y-73106547D01*
X124817142Y-73154166D01*
X124721904Y-73201785D01*
X124436190Y-73201785D01*
X124340952Y-73154166D01*
X124293333Y-73106547D01*
X124245714Y-73011309D01*
X124245714Y-72820833D01*
X124293333Y-72725595D01*
D11*
X129350000Y-110415000D02*
X128000000Y-110415000D01*
X122850000Y-104215000D02*
X133375000Y-104215000D01*
X135375000Y-109815000D02*
X135375000Y-104815000D01*
X133375000Y-109815000D02*
X135375000Y-109815000D01*
X122400000Y-110415000D02*
X122400000Y-111815000D01*
X122400000Y-110415000D02*
X121275000Y-110415000D01*
X123950000Y-110415000D02*
X123950000Y-111815000D01*
X133375000Y-110415000D02*
X133375000Y-109815000D01*
X133375000Y-104815000D02*
X135375000Y-104815000D01*
X121275000Y-104215000D02*
X121275000Y-110415000D01*
X133375000Y-110415000D02*
X131000000Y-110415000D01*
X126350000Y-110415000D02*
X123950000Y-110415000D01*
X133375000Y-104815000D02*
X133375000Y-104215000D01*
X129160000Y-59917071D02*
X129160000Y-59520000D01*
X127380000Y-62457071D02*
X127380000Y-62002929D01*
X124080000Y-59917071D02*
X124080000Y-59520000D01*
X132460000Y-59917071D02*
X132460000Y-59520000D01*
X126620000Y-62457071D02*
X126620000Y-62002929D01*
X129920000Y-62457071D02*
X129920000Y-62002929D01*
X129920000Y-59917071D02*
X129920000Y-59520000D01*
X134240000Y-59917071D02*
X134240000Y-59520000D01*
X121540000Y-62390000D02*
X121540000Y-62002929D01*
X121540000Y-59917071D02*
X121540000Y-59520000D01*
X126620000Y-59917071D02*
X126620000Y-59520000D01*
X120650000Y-64770000D02*
X120650000Y-63500000D01*
X135000000Y-62457071D02*
X135000000Y-62002929D01*
X134240000Y-62457071D02*
X134240000Y-62002929D01*
X124080000Y-62457071D02*
X124080000Y-62002929D01*
X121920000Y-64770000D02*
X120650000Y-64770000D01*
X124840000Y-59917071D02*
X124840000Y-59520000D01*
X127380000Y-59917071D02*
X127380000Y-59520000D01*
X129160000Y-62457071D02*
X129160000Y-62002929D01*
X131700000Y-59917071D02*
X131700000Y-59520000D01*
X131700000Y-62457071D02*
X131700000Y-62002929D01*
X135000000Y-59917071D02*
X135000000Y-59520000D01*
X132460000Y-62457071D02*
X132460000Y-62002929D01*
X122300000Y-59917071D02*
X122300000Y-59520000D01*
X124840000Y-62457071D02*
X124840000Y-62002929D01*
X122300000Y-62390000D02*
X122300000Y-62002929D01*
X134642776Y-66787500D02*
X135152224Y-66787500D01*
X134642776Y-67832500D02*
X135152224Y-67832500D01*
X120015000Y-69215000D02*
X136525000Y-69215000D01*
X136525000Y-69215000D02*
X136525000Y-100965000D01*
X136525000Y-100965000D02*
X120015000Y-100965000D01*
X120015000Y-100965000D02*
X120015000Y-69215000D01*
%LPC*%
D12*
X131775000Y-107315000D03*
X124775000Y-107315000D03*
D13*
X127175000Y-110565000D03*
X130175000Y-110565000D03*
X122075000Y-104065000D03*
X123175000Y-110565000D03*
D14*
X121920000Y-63500000D03*
D15*
X121920000Y-60960000D03*
X124460000Y-63500000D03*
X124460000Y-60960000D03*
X127000000Y-63500000D03*
X127000000Y-60960000D03*
X129540000Y-63500000D03*
X129540000Y-60960000D03*
X132080000Y-63500000D03*
X132080000Y-60960000D03*
X134620000Y-63500000D03*
X134620000Y-60960000D03*
D16*
X133985000Y-67310000D03*
X135810000Y-67310000D03*
D14*
X121920000Y-71120000D03*
D17*
X124460000Y-71120000D03*
X127000000Y-71120000D03*
X129540000Y-71120000D03*
X132080000Y-71120000D03*
X134620000Y-71120000D03*
X135220000Y-77520000D03*
X135220000Y-80060000D03*
X135220000Y-82600000D03*
X135220000Y-85140000D03*
X135220000Y-87680000D03*
X135220000Y-90220000D03*
X135220000Y-92760000D03*
X135220000Y-95300000D03*
X135220000Y-97840000D03*
M02*
