G04 #@! TF.GenerationSoftware,KiCad,Pcbnew,6.0.9-8da3e8f707~116~ubuntu20.04.1*
G04 #@! TF.CreationDate,2022-12-23T11:35:35+01:00*
G04 #@! TF.ProjectId,pcm_dac,70636d5f-6461-4632-9e6b-696361645f70,rev?*
G04 #@! TF.SameCoordinates,Original*
G04 #@! TF.FileFunction,Legend,Bot*
G04 #@! TF.FilePolarity,Positive*
%FSLAX46Y46*%
G04 Gerber Fmt 4.6, Leading zero omitted, Abs format (unit mm)*
G04 Created by KiCad (PCBNEW 6.0.9-8da3e8f707~116~ubuntu20.04.1) date 2022-12-23 11:35:35*
%MOMM*%
%LPD*%
G01*
G04 APERTURE LIST*
%ADD10C,0.150000*%
%ADD11C,1.500000*%
%ADD12R,1.700000X1.700000*%
%ADD13O,1.700000X1.700000*%
%ADD14C,1.700000*%
G04 APERTURE END LIST*
D10*
X131109404Y-78217380D02*
X131109404Y-77217380D01*
X130871309Y-77217380D01*
X130728452Y-77265000D01*
X130633214Y-77360238D01*
X130585595Y-77455476D01*
X130537976Y-77645952D01*
X130537976Y-77788809D01*
X130585595Y-77979285D01*
X130633214Y-78074523D01*
X130728452Y-78169761D01*
X130871309Y-78217380D01*
X131109404Y-78217380D01*
X129728452Y-78169761D02*
X129823690Y-78217380D01*
X130014166Y-78217380D01*
X130109404Y-78169761D01*
X130157023Y-78074523D01*
X130157023Y-77693571D01*
X130109404Y-77598333D01*
X130014166Y-77550714D01*
X129823690Y-77550714D01*
X129728452Y-77598333D01*
X129680833Y-77693571D01*
X129680833Y-77788809D01*
X130157023Y-77884047D01*
X129299880Y-78169761D02*
X129204642Y-78217380D01*
X129014166Y-78217380D01*
X128918928Y-78169761D01*
X128871309Y-78074523D01*
X128871309Y-78026904D01*
X128918928Y-77931666D01*
X129014166Y-77884047D01*
X129157023Y-77884047D01*
X129252261Y-77836428D01*
X129299880Y-77741190D01*
X129299880Y-77693571D01*
X129252261Y-77598333D01*
X129157023Y-77550714D01*
X129014166Y-77550714D01*
X128918928Y-77598333D01*
X128442738Y-78217380D02*
X128442738Y-77550714D01*
X128442738Y-77217380D02*
X128490357Y-77265000D01*
X128442738Y-77312619D01*
X128395119Y-77265000D01*
X128442738Y-77217380D01*
X128442738Y-77312619D01*
X127537976Y-77550714D02*
X127537976Y-78360238D01*
X127585595Y-78455476D01*
X127633214Y-78503095D01*
X127728452Y-78550714D01*
X127871309Y-78550714D01*
X127966547Y-78503095D01*
X127537976Y-78169761D02*
X127633214Y-78217380D01*
X127823690Y-78217380D01*
X127918928Y-78169761D01*
X127966547Y-78122142D01*
X128014166Y-78026904D01*
X128014166Y-77741190D01*
X127966547Y-77645952D01*
X127918928Y-77598333D01*
X127823690Y-77550714D01*
X127633214Y-77550714D01*
X127537976Y-77598333D01*
X127061785Y-77550714D02*
X127061785Y-78217380D01*
X127061785Y-77645952D02*
X127014166Y-77598333D01*
X126918928Y-77550714D01*
X126776071Y-77550714D01*
X126680833Y-77598333D01*
X126633214Y-77693571D01*
X126633214Y-78217380D01*
X125776071Y-78169761D02*
X125871309Y-78217380D01*
X126061785Y-78217380D01*
X126157023Y-78169761D01*
X126204642Y-78074523D01*
X126204642Y-77693571D01*
X126157023Y-77598333D01*
X126061785Y-77550714D01*
X125871309Y-77550714D01*
X125776071Y-77598333D01*
X125728452Y-77693571D01*
X125728452Y-77788809D01*
X126204642Y-77884047D01*
X124871309Y-78217380D02*
X124871309Y-77217380D01*
X124871309Y-78169761D02*
X124966547Y-78217380D01*
X125157023Y-78217380D01*
X125252261Y-78169761D01*
X125299880Y-78122142D01*
X125347500Y-78026904D01*
X125347500Y-77741190D01*
X125299880Y-77645952D01*
X125252261Y-77598333D01*
X125157023Y-77550714D01*
X124966547Y-77550714D01*
X124871309Y-77598333D01*
X131109404Y-79827380D02*
X131109404Y-78827380D01*
X131109404Y-79208333D02*
X131014166Y-79160714D01*
X130823690Y-79160714D01*
X130728452Y-79208333D01*
X130680833Y-79255952D01*
X130633214Y-79351190D01*
X130633214Y-79636904D01*
X130680833Y-79732142D01*
X130728452Y-79779761D01*
X130823690Y-79827380D01*
X131014166Y-79827380D01*
X131109404Y-79779761D01*
X130299880Y-79160714D02*
X130061785Y-79827380D01*
X129823690Y-79160714D02*
X130061785Y-79827380D01*
X130157023Y-80065476D01*
X130204642Y-80113095D01*
X130299880Y-80160714D01*
X129442738Y-79732142D02*
X129395119Y-79779761D01*
X129442738Y-79827380D01*
X129490357Y-79779761D01*
X129442738Y-79732142D01*
X129442738Y-79827380D01*
X129442738Y-79208333D02*
X129395119Y-79255952D01*
X129442738Y-79303571D01*
X129490357Y-79255952D01*
X129442738Y-79208333D01*
X129442738Y-79303571D01*
X131157023Y-81389761D02*
X131014166Y-81437380D01*
X130776071Y-81437380D01*
X130680833Y-81389761D01*
X130633214Y-81342142D01*
X130585595Y-81246904D01*
X130585595Y-81151666D01*
X130633214Y-81056428D01*
X130680833Y-81008809D01*
X130776071Y-80961190D01*
X130966547Y-80913571D01*
X131061785Y-80865952D01*
X131109404Y-80818333D01*
X131157023Y-80723095D01*
X131157023Y-80627857D01*
X131109404Y-80532619D01*
X131061785Y-80485000D01*
X130966547Y-80437380D01*
X130728452Y-80437380D01*
X130585595Y-80485000D01*
X129680833Y-80437380D02*
X130157023Y-80437380D01*
X130204642Y-80913571D01*
X130157023Y-80865952D01*
X130061785Y-80818333D01*
X129823690Y-80818333D01*
X129728452Y-80865952D01*
X129680833Y-80913571D01*
X129633214Y-81008809D01*
X129633214Y-81246904D01*
X129680833Y-81342142D01*
X129728452Y-81389761D01*
X129823690Y-81437380D01*
X130061785Y-81437380D01*
X130157023Y-81389761D01*
X130204642Y-81342142D01*
X129157023Y-81437380D02*
X128966547Y-81437380D01*
X128871309Y-81389761D01*
X128823690Y-81342142D01*
X128728452Y-81199285D01*
X128680833Y-81008809D01*
X128680833Y-80627857D01*
X128728452Y-80532619D01*
X128776071Y-80485000D01*
X128871309Y-80437380D01*
X129061785Y-80437380D01*
X129157023Y-80485000D01*
X129204642Y-80532619D01*
X129252261Y-80627857D01*
X129252261Y-80865952D01*
X129204642Y-80961190D01*
X129157023Y-81008809D01*
X129061785Y-81056428D01*
X128871309Y-81056428D01*
X128776071Y-81008809D01*
X128728452Y-80961190D01*
X128680833Y-80865952D01*
X128252261Y-81437380D02*
X128252261Y-80437380D01*
X127918928Y-81151666D01*
X127585595Y-80437380D01*
X127585595Y-81437380D01*
X127204642Y-80437380D02*
X126537976Y-80437380D01*
X127204642Y-81437380D01*
X126537976Y-81437380D01*
X130537976Y-92187380D02*
X130871309Y-91711190D01*
X131109404Y-92187380D02*
X131109404Y-91187380D01*
X130728452Y-91187380D01*
X130633214Y-91235000D01*
X130585595Y-91282619D01*
X130537976Y-91377857D01*
X130537976Y-91520714D01*
X130585595Y-91615952D01*
X130633214Y-91663571D01*
X130728452Y-91711190D01*
X131109404Y-91711190D01*
X129728452Y-92139761D02*
X129823690Y-92187380D01*
X130014166Y-92187380D01*
X130109404Y-92139761D01*
X130157023Y-92044523D01*
X130157023Y-91663571D01*
X130109404Y-91568333D01*
X130014166Y-91520714D01*
X129823690Y-91520714D01*
X129728452Y-91568333D01*
X129680833Y-91663571D01*
X129680833Y-91758809D01*
X130157023Y-91854047D01*
X129347500Y-91520714D02*
X129109404Y-92187380D01*
X128871309Y-91520714D01*
X128490357Y-92092142D02*
X128442738Y-92139761D01*
X128490357Y-92187380D01*
X128537976Y-92139761D01*
X128490357Y-92092142D01*
X128490357Y-92187380D01*
X128490357Y-91568333D02*
X128442738Y-91615952D01*
X128490357Y-91663571D01*
X128537976Y-91615952D01*
X128490357Y-91568333D01*
X128490357Y-91663571D01*
X127490357Y-92187380D02*
X128061785Y-92187380D01*
X127776071Y-92187380D02*
X127776071Y-91187380D01*
X127871309Y-91330238D01*
X127966547Y-91425476D01*
X128061785Y-91473095D01*
X127061785Y-92092142D02*
X127014166Y-92139761D01*
X127061785Y-92187380D01*
X127109404Y-92139761D01*
X127061785Y-92092142D01*
X127061785Y-92187380D01*
X126395119Y-91187380D02*
X126299880Y-91187380D01*
X126204642Y-91235000D01*
X126157023Y-91282619D01*
X126109404Y-91377857D01*
X126061785Y-91568333D01*
X126061785Y-91806428D01*
X126109404Y-91996904D01*
X126157023Y-92092142D01*
X126204642Y-92139761D01*
X126299880Y-92187380D01*
X126395119Y-92187380D01*
X126490357Y-92139761D01*
X126537976Y-92092142D01*
X126585595Y-91996904D01*
X126633214Y-91806428D01*
X126633214Y-91568333D01*
X126585595Y-91377857D01*
X126537976Y-91282619D01*
X126490357Y-91235000D01*
X126395119Y-91187380D01*
X130585595Y-93797380D02*
X131157023Y-93797380D01*
X130871309Y-93797380D02*
X130871309Y-92797380D01*
X130966547Y-92940238D01*
X131061785Y-93035476D01*
X131157023Y-93083095D01*
X130014166Y-93225952D02*
X130109404Y-93178333D01*
X130157023Y-93130714D01*
X130204642Y-93035476D01*
X130204642Y-92987857D01*
X130157023Y-92892619D01*
X130109404Y-92845000D01*
X130014166Y-92797380D01*
X129823690Y-92797380D01*
X129728452Y-92845000D01*
X129680833Y-92892619D01*
X129633214Y-92987857D01*
X129633214Y-93035476D01*
X129680833Y-93130714D01*
X129728452Y-93178333D01*
X129823690Y-93225952D01*
X130014166Y-93225952D01*
X130109404Y-93273571D01*
X130157023Y-93321190D01*
X130204642Y-93416428D01*
X130204642Y-93606904D01*
X130157023Y-93702142D01*
X130109404Y-93749761D01*
X130014166Y-93797380D01*
X129823690Y-93797380D01*
X129728452Y-93749761D01*
X129680833Y-93702142D01*
X129633214Y-93606904D01*
X129633214Y-93416428D01*
X129680833Y-93321190D01*
X129728452Y-93273571D01*
X129823690Y-93225952D01*
X129204642Y-93702142D02*
X129157023Y-93749761D01*
X129204642Y-93797380D01*
X129252261Y-93749761D01*
X129204642Y-93702142D01*
X129204642Y-93797380D01*
X128204642Y-93797380D02*
X128776071Y-93797380D01*
X128490357Y-93797380D02*
X128490357Y-92797380D01*
X128585595Y-92940238D01*
X128680833Y-93035476D01*
X128776071Y-93083095D01*
X127823690Y-92892619D02*
X127776071Y-92845000D01*
X127680833Y-92797380D01*
X127442738Y-92797380D01*
X127347500Y-92845000D01*
X127299880Y-92892619D01*
X127252261Y-92987857D01*
X127252261Y-93083095D01*
X127299880Y-93225952D01*
X127871309Y-93797380D01*
X127252261Y-93797380D01*
X126823690Y-93702142D02*
X126776071Y-93749761D01*
X126823690Y-93797380D01*
X126871309Y-93749761D01*
X126823690Y-93702142D01*
X126823690Y-93797380D01*
X126395119Y-92892619D02*
X126347500Y-92845000D01*
X126252261Y-92797380D01*
X126014166Y-92797380D01*
X125918928Y-92845000D01*
X125871309Y-92892619D01*
X125823690Y-92987857D01*
X125823690Y-93083095D01*
X125871309Y-93225952D01*
X126442738Y-93797380D01*
X125823690Y-93797380D01*
X125204642Y-92797380D02*
X125109404Y-92797380D01*
X125014166Y-92845000D01*
X124966547Y-92892619D01*
X124918928Y-92987857D01*
X124871309Y-93178333D01*
X124871309Y-93416428D01*
X124918928Y-93606904D01*
X124966547Y-93702142D01*
X125014166Y-93749761D01*
X125109404Y-93797380D01*
X125204642Y-93797380D01*
X125299880Y-93749761D01*
X125347500Y-93702142D01*
X125395119Y-93606904D01*
X125442738Y-93416428D01*
X125442738Y-93178333D01*
X125395119Y-92987857D01*
X125347500Y-92892619D01*
X125299880Y-92845000D01*
X125204642Y-92797380D01*
X124490357Y-92892619D02*
X124442738Y-92845000D01*
X124347500Y-92797380D01*
X124109404Y-92797380D01*
X124014166Y-92845000D01*
X123966547Y-92892619D01*
X123918928Y-92987857D01*
X123918928Y-93083095D01*
X123966547Y-93225952D01*
X124537976Y-93797380D01*
X123918928Y-93797380D01*
X123537976Y-92892619D02*
X123490357Y-92845000D01*
X123395119Y-92797380D01*
X123157023Y-92797380D01*
X123061785Y-92845000D01*
X123014166Y-92892619D01*
X122966547Y-92987857D01*
X122966547Y-93083095D01*
X123014166Y-93225952D01*
X123585595Y-93797380D01*
X122966547Y-93797380D01*
X131157023Y-95121666D02*
X130680833Y-95121666D01*
X131252261Y-95407380D02*
X130918928Y-94407380D01*
X130585595Y-95407380D01*
X129823690Y-94740714D02*
X129823690Y-95407380D01*
X130252261Y-94740714D02*
X130252261Y-95264523D01*
X130204642Y-95359761D01*
X130109404Y-95407380D01*
X129966547Y-95407380D01*
X129871309Y-95359761D01*
X129823690Y-95312142D01*
X128918928Y-95407380D02*
X128918928Y-94407380D01*
X128918928Y-95359761D02*
X129014166Y-95407380D01*
X129204642Y-95407380D01*
X129299880Y-95359761D01*
X129347500Y-95312142D01*
X129395119Y-95216904D01*
X129395119Y-94931190D01*
X129347500Y-94835952D01*
X129299880Y-94788333D01*
X129204642Y-94740714D01*
X129014166Y-94740714D01*
X128918928Y-94788333D01*
X128442738Y-95407380D02*
X128442738Y-94740714D01*
X128442738Y-94407380D02*
X128490357Y-94455000D01*
X128442738Y-94502619D01*
X128395119Y-94455000D01*
X128442738Y-94407380D01*
X128442738Y-94502619D01*
X127823690Y-95407380D02*
X127918928Y-95359761D01*
X127966547Y-95312142D01*
X128014166Y-95216904D01*
X128014166Y-94931190D01*
X127966547Y-94835952D01*
X127918928Y-94788333D01*
X127823690Y-94740714D01*
X127680833Y-94740714D01*
X127585595Y-94788333D01*
X127537976Y-94835952D01*
X127490357Y-94931190D01*
X127490357Y-95216904D01*
X127537976Y-95312142D01*
X127585595Y-95359761D01*
X127680833Y-95407380D01*
X127823690Y-95407380D01*
X127061785Y-95026428D02*
X126299880Y-95026428D01*
X125823690Y-95407380D02*
X125823690Y-94407380D01*
X125585595Y-94407380D01*
X125442738Y-94455000D01*
X125347500Y-94550238D01*
X125299880Y-94645476D01*
X125252261Y-94835952D01*
X125252261Y-94978809D01*
X125299880Y-95169285D01*
X125347500Y-95264523D01*
X125442738Y-95359761D01*
X125585595Y-95407380D01*
X125823690Y-95407380D01*
X124871309Y-95121666D02*
X124395119Y-95121666D01*
X124966547Y-95407380D02*
X124633214Y-94407380D01*
X124299880Y-95407380D01*
X123395119Y-95312142D02*
X123442738Y-95359761D01*
X123585595Y-95407380D01*
X123680833Y-95407380D01*
X123823690Y-95359761D01*
X123918928Y-95264523D01*
X123966547Y-95169285D01*
X124014166Y-94978809D01*
X124014166Y-94835952D01*
X123966547Y-94645476D01*
X123918928Y-94550238D01*
X123823690Y-94455000D01*
X123680833Y-94407380D01*
X123585595Y-94407380D01*
X123442738Y-94455000D01*
X123395119Y-94502619D01*
%LPC*%
D11*
X131775000Y-107315000D03*
X124775000Y-107315000D03*
D12*
X121920000Y-63500000D03*
D13*
X121920000Y-60960000D03*
X124460000Y-63500000D03*
X124460000Y-60960000D03*
X127000000Y-63500000D03*
X127000000Y-60960000D03*
X129540000Y-63500000D03*
X129540000Y-60960000D03*
X132080000Y-63500000D03*
X132080000Y-60960000D03*
X134620000Y-63500000D03*
X134620000Y-60960000D03*
D12*
X121920000Y-71120000D03*
D14*
X124460000Y-71120000D03*
X127000000Y-71120000D03*
X129540000Y-71120000D03*
X132080000Y-71120000D03*
X134620000Y-71120000D03*
X135220000Y-77520000D03*
X135220000Y-80060000D03*
X135220000Y-82600000D03*
X135220000Y-85140000D03*
X135220000Y-87680000D03*
X135220000Y-90220000D03*
X135220000Y-92760000D03*
X135220000Y-95300000D03*
X135220000Y-97840000D03*
M02*
